<?xml version="1.0" encoding="iso-8859-1"?>
<!-- Uploaded to: SVG Repo, www.svgrepo.com, Generator: SVG Repo Mixer Tools -->
<svg height="800px" width="800px" version="1.1" id="Layer_1" xmlns="http://www.w3.org/2000/svg" xmlns:xlink="http://www.w3.org/1999/xlink" 
	 viewBox="0 0 511.883 511.883" xml:space="preserve">
<g>
	<path style="fill:#434A54;" d="M469.236,394.566h-21.9c6.061-5.468,12.684-12.06,19.323-19.808
		c29.587-34.555,45.224-75.64,45.224-118.824c0-43.17-15.637-84.255-45.224-118.81c-22.229-25.978-44.427-39.139-45.364-39.686
		v0.008c-1.578-0.93-3.422-1.477-5.39-1.477c-5.89,0-10.653,4.78-10.653,10.67c0,3.913,2.108,7.326,5.248,9.177v0.008
		c0.188,0.125,20.496,12.264,40.443,35.734c26.291,30.946,39.602,66.063,39.602,104.375s-13.311,73.428-39.602,104.39
		c-8.607,10.123-17.277,18.152-24.385,23.994v-32.398c0-5.889-4.764-10.67-10.653-10.67s-10.653,4.781-10.653,10.67v53.316
		c0,5.889,4.764,10.669,10.653,10.669h53.331c5.874,0,10.654-4.78,10.654-10.669C479.89,399.346,475.11,394.566,469.236,394.566z"/>
	<path style="fill:#434A54;" d="M95.978,95.97H42.654c-5.889,0-10.661,4.78-10.661,10.67c0,5.889,4.772,10.661,10.661,10.661H64.54
		c-6.062,5.476-12.685,12.075-19.315,19.823C15.637,171.679,0,212.764,0,255.934c0,43.185,15.637,84.27,45.225,118.824
		c22.229,25.963,44.427,39.131,45.356,39.678h0.008c1.586,0.922,3.421,1.469,5.39,1.469c5.889,0,10.661-4.78,10.661-10.669
		c0-3.922-2.116-7.327-5.257-9.17l0.008-0.016c-0.203-0.125-20.511-12.263-40.451-35.727
		c-26.284-30.961-39.609-66.077-39.609-104.389s13.325-73.429,39.608-104.375c8.607-10.131,17.277-18.152,24.377-24.002v32.398
		c0,5.897,4.772,10.67,10.662,10.67c5.889,0,10.661-4.772,10.661-10.67V106.64C106.639,100.751,101.867,95.97,95.978,95.97z"/>
</g>
<path style="fill:#F6BB42;" d="M353.701,95.97c-16.465-37.655-54.035-63.977-97.76-63.977s-81.302,26.322-97.759,63.978
	l-8.881,10.67v31.992c0,58.893,47.747,106.64,106.64,106.64s106.633-47.747,106.633-106.64v-31.992L353.701,95.97z"/>
<path style="fill:#FFCE54;" d="M362.574,106.64c0,58.893-47.74,106.64-106.633,106.64s-106.64-47.747-106.64-106.64
	C149.301,47.739,197.048,0,255.941,0S362.574,47.739,362.574,106.64z"/>
<path style="fill:#E8AA3D;" d="M255.941,63.986c-5.889,0-10.661,4.771-10.661,10.661v63.985c0,5.89,4.772,10.662,10.661,10.662
	c5.89,0,10.662-4.772,10.662-10.662V74.647C266.603,68.757,261.831,63.986,255.941,63.986z"/>
<path style="fill:#F6BB42;" d="M353.701,362.574c-16.465-37.648-54.035-63.986-97.76-63.986s-81.302,26.338-97.759,63.986
	l-8.881,10.669v31.993c0,58.908,47.747,106.647,106.64,106.647s106.633-47.739,106.633-106.647v-31.993L353.701,362.574z"/>
<path style="fill:#FFCE54;" d="M362.574,373.243c0,58.908-47.74,106.647-106.633,106.647s-106.64-47.739-106.64-106.647
	c0-58.893,47.747-106.64,106.64-106.64S362.574,314.35,362.574,373.243z"/>
<path style="fill:#E8AA3D;" d="M255.941,330.581c-5.889,0-10.661,4.78-10.661,10.669v63.986c0,5.889,4.772,10.669,10.661,10.669
	c5.89,0,10.662-4.78,10.662-10.669V341.25C266.603,335.361,261.831,330.581,255.941,330.581z"/>
</svg>